<?xml version="1.0" standalone="no"?>
<!DOCTYPE svg PUBLIC "-//W3C//DTD SVG 20010904//EN"
 "http://www.w3.org/TR/2001/REC-SVG-20010904/DTD/svg10.dtd">
<svg version="1.0" xmlns="http://www.w3.org/2000/svg"
 width="181.000000pt" height="70.000000pt" viewBox="0 0 181.000000 70.000000"
 preserveAspectRatio="xMidYMid meet">
<metadata>
Created by potrace 1.10, written by Peter Selinger 2001-2011
</metadata>
<g transform="translate(0.000000,70.000000) scale(0.100000,-0.100000)"
fill="#000000" stroke="none">
<path d="M183 505 c-37 -16 -73 -68 -73 -105 0 -14 9 -39 19 -56 19 -31 62
-50 181 -81 28 -7 36 -14 38 -36 4 -36 -12 -55 -54 -63 -45 -8 -93 12 -100 42
-5 21 -12 24 -51 24 -44 0 -45 -1 -38 -27 15 -62 80 -103 165 -103 98 0 150
41 150 117 0 85 -7 91 -180 144 -37 11 -46 19 -48 40 -4 34 22 54 70 53 40 -1
78 -26 78 -51 0 -10 10 -13 38 -11 31 2 36 6 34 23 -13 82 -137 131 -229 90z"/>
<path d="M438 310 l3 -200 34 0 35 0 0 98 c0 85 3 101 20 120 26 27 61 28 85
2 16 -18 17 -32 11 -120 l-6 -100 40 0 40 0 0 124 0 124 -32 27 c-27 23 -39
26 -77 22 -26 -3 -48 -11 -53 -21 -18 -33 -28 -14 -28 54 l0 70 -37 0 -38 0 3
-200z"/>
<path d="M792 393 c-19 -9 -40 -26 -48 -38 -21 -32 -28 -104 -15 -152 33 -121
232 -126 271 -7 15 43 7 127 -14 159 -33 51 -130 70 -194 38z m123 -68 c50
-49 20 -155 -45 -155 -15 0 -38 9 -51 19 -20 16 -24 29 -24 71 0 42 4 55 24
71 32 26 67 24 96 -6z"/>
<path d="M1030 259 l0 -150 36 3 37 3 -2 99 c-2 107 9 136 55 136 35 0 44 -29
44 -139 l0 -101 40 0 40 0 0 103 c0 90 3 106 19 121 11 10 28 16 38 14 33 -6
44 -47 40 -145 l-3 -93 38 0 37 0 -4 116 c-5 139 -8 150 -45 169 -44 23 -85
19 -108 -10 l-20 -25 -26 25 c-37 34 -89 34 -120 0 -13 -14 -26 -25 -30 -25
-3 0 -4 11 0 25 6 23 4 25 -30 25 l-36 0 0 -151z"/>
<path d="M1532 393 c-44 -21 -62 -60 -62 -132 0 -77 12 -106 52 -131 66 -40
163 -18 206 47 14 23 14 23 -31 23 -27 0 -49 -6 -57 -15 -28 -34 -93 -9 -102
40 -3 19 2 19 101 16 l104 -3 -6 47 c-4 25 -13 56 -21 67 -39 56 -118 74 -184
41z m118 -68 c27 -29 21 -32 -58 -37 -57 -3 -67 9 -35 44 23 26 65 23 93 -7z"/>
</g>
</svg>
